# xmcd
#
# Track frame offsets: 
#        150
#        30272
#        52918
#        73711
#        98750
#        130299
#        149434
#        168025
#        188584
#        212551
#        232190
#        252523
#        281399
#        300133
#
# Disc length: 4277 seconds
#
# Revision: 0
# Processed by: cddbd v1.5.2PL0 Copyright (c) Steve Scherf et al.
# Submitted via: ExactAudioCopy v1.2
#
DISCID=b710b30e
DTITLE=Willie Buck with J.L. Pardo and Quique Gómez - Songs For Muddy: T
DTITLE=he Madrid Session
DYEAR=2011
DGENRE=Blues
TTITLE0=My Eyes Keep In Trouble
TTITLE1=I Want My Baby
TTITLE2=Manish Boy
TTITLE3=Streamline Woman
TTITLE4=I Am A King Bee
TTITLE5=I Won't Go On
TTITLE6=Baby Please Don't Go
TTITLE7=40 Days And 40 Nigths
TTITLE8=Doin' Good And Bad At The Same Time
TTITLE9=Hoochie Coochie Man
TTITLE10=Kansas City
TTITLE11=Long Distance Call
TTITLE12=Trouble No More
TTITLE13=Walking Through The Park
EXTD=
EXTT0=
EXTT1=
EXTT2=
EXTT3=
EXTT4=
EXTT5=
EXTT6=
EXTT7=
EXTT8=
EXTT9=
EXTT10=
EXTT11=
EXTT12=
EXTT13=
PLAYORDER=
